<svg width="24" height="24" viewBox="0 0 24 24" fill="none" xmlns="http://www.w3.org/2000/svg">
<path d="M20.4491 20.4497H16.893V14.8805C16.893 13.5525 16.8693 11.843 15.0435 11.843C13.1914 11.843 12.908 13.2899 12.908 14.7838V20.4493H9.35199V8.99691H12.7658V10.562H12.8136C13.1552 9.97784 13.6489 9.49727 14.242 9.17151C14.8352 8.84573 15.5056 8.68694 16.1818 8.71205C19.786 8.71205 20.4506 11.0828 20.4506 14.1671L20.4491 20.4497ZM5.33961 7.43145C4.93147 7.43153 4.53245 7.31057 4.19306 7.08386C3.85365 6.85716 3.58911 6.53491 3.43285 6.15784C3.2766 5.78077 3.23565 5.36584 3.3152 4.96552C3.39476 4.56519 3.59123 4.19743 3.87979 3.90877C4.16834 3.6201 4.536 3.4235 4.93629 3.34379C5.33659 3.26409 5.7515 3.30489 6.1286 3.46101C6.50571 3.61714 6.82805 3.88158 7.05485 4.22092C7.28168 4.56025 7.40279 4.95923 7.40285 5.36739C7.4029 5.6384 7.34957 5.90676 7.2459 6.15715C7.14224 6.40756 6.99029 6.63508 6.79871 6.82674C6.60712 7.01842 6.37964 7.17047 6.12928 7.27422C5.87893 7.37797 5.61061 7.4314 5.33961 7.43145ZM7.11762 20.4497H3.55789V8.99691H7.11762V20.4497ZM22.2219 0.00163516H1.77098C1.30681 -0.00360328 0.859514 0.175664 0.527439 0.500043C0.195362 0.824423 0.00566505 1.26737 0 1.73156V22.2681C0.00547116 22.7326 0.195056 23.1758 0.527121 23.5006C0.859187 23.8253 1.30658 24.0049 1.77098 23.9999H22.2219C22.6873 24.0057 23.1359 23.8266 23.4693 23.5019C23.8025 23.1773 23.9934 22.7334 24 22.2681V1.73009C23.9933 1.26497 23.8022 0.821516 23.469 0.497145C23.1356 0.172773 22.6871 -0.00598145 22.2219 0.000152822" fill="#4B5563"/>
</svg>
