<svg width="24" height="24" viewBox="0 0 24 24" fill="none" xmlns="http://www.w3.org/2000/svg">
<path d="M2.4 24C1.74 24 1.1752 23.7065 0.7056 23.1195C0.236 22.5325 0.0008 21.826 0 21V3C0 2.175 0.2352 1.469 0.7056 0.882C1.176 0.295 1.7408 0.001 2.4 0H21.6C22.26 0 22.8252 0.294 23.2956 0.882C23.766 1.47 24.0008 2.176 24 3V21C24 21.825 23.7652 22.5315 23.2956 23.1195C22.826 23.7075 22.2608 24.001 21.6 24H2.4ZM21.6 6L12.63 13.0125C12.53 13.0875 12.4252 13.144 12.3156 13.182C12.206 13.22 12.1008 13.2385 12 13.2375C11.8992 13.2365 11.7944 13.218 11.6856 13.182C11.5768 13.146 11.4716 13.0895 11.37 13.0125L2.4 6V21H21.6V6ZM12 10.5L21.6 3H2.4L12 10.5ZM2.4 6.375V4.1625V4.2V4.182V6.375Z" fill="#4B5563"/>
</svg>
