<svg width="64" height="64" viewBox="0 0 64 64" fill="none" xmlns="http://www.w3.org/2000/svg">
<path d="M-0.439941 64V0H63.5601V64H-0.439941Z" fill="#FFD600"/>
<path d="M41.4054 47.9057C42.6357 49.9039 43.9725 51.8186 46.8045 51.8186C49.1832 51.8186 50.4312 50.6363 50.4312 49.0008C50.4312 47.0434 49.1405 46.3483 46.5237 45.2088L45.089 44.5972C40.9485 42.8408 38.1948 40.6399 38.1948 35.991C38.1948 31.7066 41.4748 28.4461 46.6001 28.4461C50.2499 28.4461 52.8721 29.7101 54.7636 33.0203L50.2943 35.8772C49.3112 34.1208 48.2481 33.4292 46.6001 33.4292C44.9183 33.4292 43.8534 34.4906 43.8534 35.8772C43.8534 37.591 44.9201 38.2843 47.3823 39.3457L48.817 39.9572C53.697 42.0354 56.449 44.1581 56.449 48.9297C56.449 54.071 52.3885 56.8888 46.9379 56.8888C41.6063 56.8888 38.5788 54.2132 36.8934 50.9012L41.4054 47.9057ZM20.8081 48.0514C21.7077 49.6621 23.0748 50.9012 25.041 50.9012C26.9219 50.9012 28.0045 50.1581 28.0045 47.2692V28.4443H33.9299V48.1795C33.9299 54.1652 30.4579 56.8888 25.3877 56.8888C20.8063 56.8888 17.4997 53.7848 16.1521 50.9012L20.8081 48.0514Z" fill="#000001"/>
</svg>
